<svg  width="45" height="20" viewBox="0 0 3391 1871" xmlns="http://www.w3.org/2000/svg">
<path d="M133 835C77.7715 835 33 879.772 33 935C33 990.228 77.7715 1035 133 1035L133 835ZM3328.71 1005.71C3367.76 966.659 3367.76 903.342 3328.71 864.29L2692.31 227.893C2653.26 188.841 2589.95 188.841 2550.89 227.893C2511.84 266.946 2511.84 330.262 2550.89 369.315L3116.58 935L2550.89 1500.69C2511.84 1539.74 2511.84 1603.05 2550.89 1642.11C2589.95 1681.16 2653.26 1681.16 2692.31 1642.11L3328.71 1005.71ZM133 1035L3258 1035L3258 835L133 835L133 1035Z" />
</svg>
